<svg width="596" height="842" viewBox="0 0 596 842" fill="none" xmlns="http://www.w3.org/2000/svg">
<path fill-rule="evenodd" clip-rule="evenodd" d="M312.95 455.16V447.678V8.97101C312.95 7.44604 312.945 5.92096 312.952 4.39496C312.981 -2.65802 312.984 -2.68396 321.084 -2.68799C359.01 -2.69598 396.934 -2.69299 434.863 -2.69299C450.723 -2.69299 450.723 -2.69299 450.723 11.017V354.664C450.723 362.309 450.73 362.313 459.861 362.313H596.874C606.035 362.313 606.041 362.309 606.041 354.692C606.043 238.956 606.043 123.223 606.043 7.48596C606.043 5.79199 606.186 4.08698 606.022 2.40698C605.67 -1.20703 607.233 -2.74902 611.744 -2.73804C654.634 -2.64404 697.525 -2.646 740.416 -2.73804C744.84 -2.74707 746.611 -1.34607 746.213 2.33698C746.067 3.68097 746.198 5.04504 746.198 6.401C746.198 284.809 746.202 563.216 746.185 841.623C746.185 851.921 747.289 850.97 735.374 850.978C695.065 851.01 654.758 850.995 614.447 850.987C606.068 850.985 606.048 850.964 606.045 843.627C606.041 727.045 606.043 610.463 606.041 493.881C606.041 485.987 606.037 485.985 596.597 485.985C550.927 485.983 505.257 485.983 459.585 485.985C450.734 485.985 450.725 485.991 450.725 493.362C450.723 602.147 450.723 710.935 450.723 819.722V827.182C442.694 821.619 438.01 815.112 432.369 809.394C416.467 793.273 400.943 776.874 385.318 760.552C370.196 744.749 355.18 728.874 340.024 713.095C326.243 698.749 312.281 684.527 298.496 670.181C285.342 656.491 272.361 642.682 259.216 628.985C245.444 614.632 231.547 600.365 217.739 586.036C202.675 570.405 187.652 554.747 172.608 539.1C158.569 524.504 144.495 509.93 130.494 495.305C117.369 481.596 104.367 467.8 91.223 454.103C77.449 439.751 63.552 425.482 49.744 411.155C34.679 395.524 19.657 379.864 4.612 364.22C-9.42599 349.621 -23.487 335.041 -37.503 320.427C-49.016 308.424 -60.447 296.362 -71.967 284.362C-87.37 268.315 -102.829 252.308 -118.256 236.277C-133.304 220.635 -148.339 204.983 -163.383 189.338C-177.421 174.741 -191.483 160.16 -205.5 145.546C-217.011 133.541 -228.44 121.48 -239.96 109.481C-255.365 93.435 -270.84 77.436 -286.247 61.395C-301.401 45.614 -316.513 29.802 -331.636 13.999C-337.511 7.86194 -343.385 1.72498 -349.203 -4.45404C-350.123 -5.43005 -351.99 -6.34302 -350.878 -7.875C-349.923 -9.19299 -348.009 -8.755 -346.486 -8.763C-337.749 -8.80896 -329.011 -8.79303 -320.274 -8.79303C-267.654 -8.79303 -215.028 -8.42004 -162.419 -9.10303C-151.754 -9.24207 -145.694 -5.61804 -139.695 0.544006C-125.046 15.59 -110.16 30.4659 -95.375 45.413C-80.717 60.233 -66.111 75.089 -51.397 89.868C-39.112 102.21 -26.65 114.426 -14.362 126.768C0.348999 141.549 14.918 156.431 29.626 171.214C41.778 183.431 54.089 195.535 66.248 207.749C81.09 222.656 95.807 237.652 110.649 252.561C122.808 264.773 135.114 276.881 147.273 289.095C162.113 304.003 176.833 318.998 191.673 333.906C203.831 346.12 216.14 358.225 228.299 370.439C243.138 385.346 257.837 400.357 272.702 415.247C285.751 428.317 298.943 441.282 312.95 455.16Z" fill="#F2F2F2"/>
</svg>
